{
  "accessors": [
    {
      "bufferView": 2,
      "componentType": 5126,
      "count": 913,
      "max": [
        0.14963200688362122,
        1.0,
        0.44864898920059204
      ],
      "min": [
        -0.14963200688362122,
        -1.0,
        -0.44864898920059204
      ],
      "type": "VEC3"
    },
    {
      "bufferView": 2,
      "byteOffset": 10956,
      "componentType": 5126,
      "count": 913,
      "max": [
        1.0,
        1.0,
        1.0
      ],
      "min": [
        -1.0,
        -1.0,
        -1.0
      ],
      "type": "VEC3"
    },
    {
      "bufferView": 3,
      "componentType": 5126,
      "count": 913,
      "max": [
        1.0,
        0.9998208284378052,
        1.0,
        1.0
      ],
      "min": [
        -0.9999999403953552,
        -0.9998208284378052,
        -1.0,
        -1.0
      ],
      "type": "VEC4"
    },
    {
      "bufferView": 1,
      "componentType": 5126,
      "count": 913,
      "max": [
        0.9874650239944458,
        0.9980080127716064
      ],
      "min": [
        0.0019709800835698843,
        0.001992030069231987
      ],
      "type": "VEC2"
    },
    {
      "bufferView": 0,
      "componentType": 5125,
      "count": 1656,
      "type": "SCALAR"
    }
  ],
  "asset": {
    "extras": {
      "author": "SK Milanova (https://sketchfab.com/milvaa)",
      "license": "CC-BY-NC-4.0 (http://creativecommons.org/licenses/by-nc/4.0/)",
      "source": "https://sketchfab.com/3d-models/simple-medieval-lamp-c1f1184dc3274720b707dc6293279c31",
      "title": "Simple Medieval Lamp"
    },
    "generator": "Sketchfab-12.63.0",
    "version": "2.0"
  },
  "bufferViews": [
    {
      "buffer": 0,
      "byteLength": 6624,
      "name": "floatBufferViews",
      "target": 34963
    },
    {
      "buffer": 0,
      "byteLength": 7304,
      "byteOffset": 6624,
      "byteStride": 8,
      "name": "floatBufferViews",
      "target": 34962
    },
    {
      "buffer": 0,
      "byteLength": 21912,
      "byteOffset": 13928,
      "byteStride": 12,
      "name": "floatBufferViews",
      "target": 34962
    },
    {
      "buffer": 0,
      "byteLength": 14608,
      "byteOffset": 35840,
      "byteStride": 16,
      "name": "floatBufferViews",
      "target": 34962
    }
  ],
  "buffers": [
    {
      "byteLength": 50448,
      "uri": "scene.bin"
    }
  ],
  "images": [
    {
      "uri": "textures/E9_Lamp_Material_baseColor.jpeg"
    },
    {
      "uri": "textures/E9_Lamp_Material_metallicRoughness.png"
    },
    {
      "uri": "textures/E9_Lamp_Material_normal.png"
    }
  ],
  "materials": [
    {
      "doubleSided": true,
      "name": "E9_Lamp_Material",
      "normalTexture": {
        "index": 2
      },
      "occlusionTexture": {
        "index": 1
      },
      "pbrMetallicRoughness": {
        "baseColorTexture": {
          "index": 0
        },
        "metallicRoughnessTexture": {
          "index": 1
        }
      }
    }
  ],
  "meshes": [
    {
      "name": "defaultMaterial",
      "primitives": [
        {
          "attributes": {
            "NORMAL": 1,
            "POSITION": 0,
            "TANGENT": 2,
            "TEXCOORD_0": 3
          },
          "indices": 4,
          "material": 0,
          "mode": 4
        }
      ]
    }
  ],
  "nodes": [
    {
      "children": [
        1
      ],
      "matrix": [
        1.0,
        0.0,
        0.0,
        0.0,
        0.0,
        2.220446049250313e-16,
        -1.0,
        0.0,
        0.0,
        1.0,
        2.220446049250313e-16,
        0.0,
        0.0,
        0.0,
        0.0,
        1.0
      ],
      "name": "Sketchfab_model"
    },
    {
      "children": [
        2
      ],
      "matrix": [
        1.0,
        0.0,
        0.0,
        0.0,
        0.0,
        -4.371139006309477e-08,
        0.999999999999999,
        0.0,
        0.0,
        -0.999999999999999,
        -4.371139006309477e-08,
        0.0,
        0.0,
        0.0,
        0.0,
        1.0
      ],
      "name": "Collada visual scene group"
    },
    {
      "children": [
        3
      ],
      "name": "E9_Lamp"
    },
    {
      "mesh": 0,
      "name": "defaultMaterial"
    }
  ],
  "samplers": [
    {
      "magFilter": 9729,
      "minFilter": 9987,
      "wrapS": 10497,
      "wrapT": 10497
    }
  ],
  "scene": 0,
  "scenes": [
    {
      "name": "Sketchfab_Scene",
      "nodes": [
        0
      ]
    }
  ],
  "textures": [
    {
      "sampler": 0,
      "source": 0
    },
    {
      "sampler": 0,
      "source": 1
    },
    {
      "sampler": 0,
      "source": 2
    }
  ]
}
